<svg width="23" height="23" viewBox="0 0 23 23" fill="none" xmlns="http://www.w3.org/2000/svg">
<g id="usdt 1 (traced)" clip-path="url(#clip0_2011_19)">
<g id="Black">
<path id="Vector" d="M10.04 0.0673714C7.96463 0.336903 6.06443 1.13202 4.40232 2.41678C3.87674 2.82557 2.98279 3.70604 2.54705 4.24511C1.3072 5.78143 0.485135 7.59628 0.134744 9.57284C0.00896268 10.2736 -0.0404514 11.9582 0.040408 12.7264C0.233572 14.5187 0.857986 16.2752 1.8283 17.7666C2.26853 18.4404 2.65486 18.9211 3.25681 19.5365C5.13904 21.4682 7.51541 22.6361 10.2197 22.9506C10.8217 23.0224 12.2861 23.009 12.9375 22.9326C16.2976 22.5148 19.2984 20.6326 21.1717 17.7666C22.115 16.3246 22.717 14.667 22.9326 12.9375C23.0224 12.2098 23.0224 10.7947 22.9326 10.0625C22.5193 6.72929 20.6416 3.71952 17.8115 1.85975C16.3336 0.889441 14.6894 0.287487 12.9375 0.0673714C12.2547 -0.0134888 10.6869 -0.0134888 10.04 0.0673714ZM15.8035 7.64569L15.79 8.73729L14.2537 8.75077L12.7129 8.75975V9.40663V10.0535L12.9959 10.0805C14.083 10.1793 14.366 10.2107 14.8467 10.2916C16.3066 10.5297 17.25 10.943 17.25 11.3428C17.25 11.491 17.0119 11.7516 16.7603 11.8773C16.0865 12.2187 14.7568 12.4838 13.1306 12.6051L12.7129 12.6365V14.8736V17.1152H11.5H10.2871V14.8781V12.6365L9.62674 12.5826C7.66814 12.4254 6.28904 12.066 5.89373 11.6123C5.71853 11.4146 5.71404 11.2799 5.87127 11.0912C6.22166 10.6779 7.79842 10.2557 9.45603 10.1299C9.65369 10.1164 9.92322 10.0939 10.0535 10.0805L10.2871 10.058V9.40663V8.75975L8.75076 8.75077L7.20994 8.73729L7.19646 7.64569L7.18748 6.55858H11.5H15.8125L15.8035 7.64569Z" fill="white"/>
<path id="Vector_2" d="M9.68065 10.3814C7.94218 10.5117 6.5496 10.8531 6.44628 11.1855C6.29354 11.6617 7.83886 12.048 10.4219 12.1783C12.6051 12.2861 15.206 12.039 16.1539 11.6348C16.3785 11.5359 16.5762 11.3607 16.5762 11.2574C16.5762 11.1496 16.3471 10.9654 16.0955 10.8711C15.5295 10.6599 14.384 10.4533 13.4541 10.3994C13.207 10.3859 12.9375 10.3635 12.8611 10.35L12.7129 10.3275L12.7039 11.1047L12.6904 11.8818H11.5H10.3096L10.2961 11.1047C10.2871 10.5252 10.2691 10.332 10.2287 10.3365C10.2017 10.341 9.95468 10.359 9.68065 10.3814Z" fill="white"/>
</g>
<g id="Gray">
<path id="Vector_3" d="M11.4865 6.59004L15.7676 6.60352L15.7811 7.67266L15.7945 8.7373L15.79 7.65918V6.58105H11.5H7.20996L11.4865 6.59004Z" fill="#6B6B6B"/>
</g>
<g id="Gray_2">
<path id="Vector_4" d="M7.20544 7.65919C7.20544 8.25216 7.21443 8.49025 7.21892 8.18478C7.22791 7.87931 7.22791 7.39415 7.21892 7.10665C7.21443 6.81915 7.20544 7.06622 7.20544 7.65919Z" fill="#969696"/>
<path id="Vector_5" d="M10.3051 9.41114C10.3051 9.7795 10.314 9.92774 10.3185 9.73457C10.3275 9.54141 10.3275 9.24043 10.3185 9.06075C10.314 8.88106 10.3051 9.03829 10.3051 9.41114Z" fill="#969696"/>
<path id="Vector_6" d="M12.6859 9.41114C12.6859 9.7795 12.6949 9.92774 12.6994 9.73457C12.7084 9.54141 12.7084 9.24043 12.6994 9.06075C12.6949 8.88106 12.6859 9.03829 12.6859 9.41114Z" fill="#969696"/>
<path id="Vector_7" d="M10.3051 11.0957C10.3051 11.527 10.314 11.7066 10.3185 11.4865C10.3275 11.2709 10.3275 10.9205 10.3185 10.7004C10.314 10.4848 10.3051 10.6645 10.3051 11.0957Z" fill="#969696"/>
<path id="Vector_8" d="M12.6859 11.0957C12.6859 11.527 12.6949 11.7066 12.6994 11.4865C12.7084 11.2709 12.7084 10.9205 12.6994 10.7004C12.6949 10.4848 12.6859 10.6645 12.6859 11.0957Z" fill="#969696"/>
<path id="Vector_9" d="M10.9071 11.8908C10.9879 11.8998 11.1092 11.8998 11.1766 11.8908C11.244 11.8818 11.1766 11.8728 11.0284 11.8728C10.8801 11.8728 10.8262 11.8818 10.9071 11.8908Z" fill="#969696"/>
<path id="Vector_10" d="M11.8504 11.8908C11.9313 11.8998 12.0526 11.8998 12.12 11.8908C12.1873 11.8818 12.12 11.8728 11.9717 11.8728C11.8235 11.8728 11.7696 11.8818 11.8504 11.8908Z" fill="#969696"/>
<path id="Vector_11" d="M10.3096 14.8557V17.0928H11.5H12.6904V14.8557V12.623L12.6814 14.8467L12.668 17.0703H11.5H10.332L10.3186 14.8467L10.3096 12.623V14.8557Z" fill="#969696"/>
</g>
<g id="LightGray">
<path id="Vector_12" d="M7.23245 7.65918V8.71484H8.78226H10.3321V9.40664V10.0939L9.8514 10.1254C9.13265 10.1748 8.35999 10.2736 7.71312 10.4039C5.95218 10.7498 5.33675 11.2889 6.13636 11.783C6.71585 12.1424 8.23421 12.4658 9.81546 12.5691L10.3096 12.6006L10.3231 14.8332L10.3321 17.0703H11.5H12.668L12.677 14.8377L12.6905 12.6006L13.3643 12.5512C15.269 12.4029 16.6885 12.0391 17.1063 11.5943C17.6858 10.9699 15.8979 10.3096 13.1532 10.1254L12.668 10.0939V9.40664V8.71484H14.2178H15.7676V7.65918V6.60352H11.5H7.23245V7.65918ZM10.3321 11.0957V11.8594H11.5H12.668V11.0867V10.3186L13.216 10.35C14.703 10.4354 16.0731 10.7229 16.4414 11.0373C16.958 11.4686 16.0461 11.8684 13.9932 12.1154C13.0184 12.2277 9.97269 12.2322 9.02933 12.1154C7.50648 11.9268 6.58108 11.6617 6.41937 11.3563C6.30257 11.1361 6.72034 10.8621 7.45706 10.6734C8.13089 10.5027 9.28089 10.35 10.0086 10.3365L10.3321 10.332V11.0957Z" fill="#3F4344"/>
</g>
</g>
<defs>
<clipPath id="clip0_2011_19">
<rect width="23" height="23" fill="white"/>
</clipPath>
</defs>
</svg>
